<?xml version="1.0" encoding="UTF-8"?>
<svg width="32" height="32" viewBox="0 0 32 32" xmlns="http://www.w3.org/2000/svg">
  <title>ekstra-AI logo</title>
  <g fill="none" fill-rule="evenodd">
    <rect width="32" height="32" fill="#0D0D0D" rx="8"/>
    <path d="M16 23c-3.866 0-7-3.134-7-7s3.134-7 7-7c1.933 0 3.667.784 4.95 2.05L19.536 12.464C18.768 12.16 17.92 12 17 12c-2.76 0-5 2.24-5 5s2.24 5 5 5c2.76 0 5-2.24 5-5h-2l2.83-2.83C22.098 12.785 20.183 12 18 12c-3.866 0-7 3.134-7 7s3.134 7 7 7 7-3.134 7-7h2c0 4.97-4.03 9-9 9z" fill="#FFF"/>
    <circle cx="16" cy="16" r="3" fill="#00FF9D"/>
  </g>
</svg>
