<svg width="32" height="32" viewBox="0 0 512 512" xmlns="http://www.w3.org/2000/svg">
  <defs>
    <linearGradient id="grad" x1="0%" y1="0%" x2="100%" y2="100%">
      <stop offset="0%" stop-color="#1E90FF"/>
      <stop offset="50%" stop-color="#6A5BFF"/>
      <stop offset="100%" stop-color="#FF4FD8"/>
    </linearGradient>
  </defs>

  <!-- Background (optional) -->
  <rect width="512" height="512" fill="#0A0A14"/>

  <!-- Ekstra logo shape -->
  <path fill="url(#grad)" d="
    M256 64
    C150 64 64 150 64 256
    S150 448 256 448
    h80
    c18 0 26-22 12-34
    L310 330
    c-6-6-6-16 0-22
    l38-38
    c6-6 6-16 0-22
    L310 210
    c-6-6-6-16 0-22
    L348 158
    c14-12 6-34-12-34
    H256
    Z

    M180 230
    h140
    v52
    H180
    Z
  "/>
</svg>
